<svg height="512pt" viewBox="0 -1 512 512" width="512pt" xmlns="http://www.w3.org/2000/svg"><path d="M504.5 255.781C504.5 118.661 393.242 7.5 256 7.5S7.5 118.66 7.5 255.781 118.758 504.062 256 504.062s248.5-111.16 248.5-248.28zm0 0" fill="#e5554e"/><path d="M256 7.5c-6.535 0-13.008.254-19.414.75 128.168 9.895 229.086 116.938 229.086 247.531 0 130.59-100.918 237.633-229.086 247.528 6.406.496 12.879.75 19.414.75 137.242 0 248.5-111.157 248.5-248.278S393.242 7.5 256 7.5zm0 0" fill="#c62430"/><path d="M314.285 256.266l82.422-82.348c16.105-16.09 16.105-42.195 0-58.285-16.086-16.07-42.148-16.07-58.234 0L256 198.035l-82.473-82.402c-16.086-16.07-42.148-16.07-58.23 0-16.106 16.09-16.106 42.195 0 58.285l82.422 82.348-82.422 82.351c-16.106 16.09-16.106 42.192 0 58.281 16.082 16.07 42.144 16.07 58.23 0L256 314.496l82.473 82.402c16.086 16.07 42.148 16.07 58.23 0 16.106-16.09 16.106-42.195 0-58.285zm0 0" fill="#fff"/><path d="M314.285 256.266l82.445-82.375c16.098-16.078 16.098-42.153 0-58.23-13.144-13.138-32.964-15.536-48.554-7.212a41.036 41.036 0 019.726 7.211c16.098 16.078 16.098 42.153 0 58.23l-72.148 72.09c-5.688 5.68-5.688 14.891 0 20.575l72.148 72.086c16.098 16.082 16.098 42.152 0 58.23a41.16 41.16 0 01-9.726 7.215c15.59 8.324 35.41 5.922 48.554-7.215 16.098-16.078 16.098-42.148 0-58.23zm0 0" fill="#e6e6e6"/><path d="M437.02 74.914C388.664 26.605 324.379 0 256 0S123.336 26.605 74.98 74.914C26.63 123.227 0 187.457 0 255.781c0 65.188 24.55 127.27 69.129 174.82 44.363 47.325 104.332 75.852 168.86 80.337 4.128.273 7.714-2.833 8.003-6.961a7.506 7.506 0 00-6.965-8.004c-60.738-4.22-117.191-31.078-158.957-75.63C38.11 375.583 15 317.142 15 255.782c0-64.312 25.066-124.777 70.586-170.254C131.106 40.047 191.625 15 256 15s124.895 25.047 170.414 70.523C471.934 131.003 497 191.47 497 255.781c0 61.36-23.11 119.805-65.07 164.563-41.766 44.55-98.22 71.41-158.957 75.629a7.506 7.506 0 00-6.965 8.004 7.502 7.502 0 008.004 6.96c64.527-4.484 124.496-33.011 168.86-80.335C487.448 383.05 512 320.965 512 255.782c0-68.325-26.629-132.555-74.98-180.868zm0 0"/><path d="M227.852 353.223L256 325.098l77.145 77.082c9.496 9.484 21.972 14.23 34.445 14.23s24.945-4.746 34.441-14.23c9.203-9.196 14.27-21.418 14.27-34.422 0-13.004-5.067-25.23-14.27-34.422l-77.136-77.07 77.136-77.07c9.203-9.192 14.27-21.419 14.27-34.423 0-13.003-5.067-25.226-14.27-34.421-18.992-18.973-49.894-18.973-68.886 0l-24.407 24.386a7.497 7.497 0 00-.004 10.606 7.497 7.497 0 0010.606.004l24.406-24.383c13.145-13.137 34.535-13.137 47.684 0 6.367 6.36 9.87 14.812 9.87 23.808 0 8.997-3.503 17.45-9.87 23.813l-82.45 82.375a7.501 7.501 0 000 10.61l82.45 82.374c6.367 6.36 9.87 14.817 9.87 23.813 0 8.996-3.503 17.449-9.87 23.808-13.149 13.137-34.54 13.137-47.684 0l-82.445-82.375a7.504 7.504 0 00-10.606 0l-33.449 33.422a7.497 7.497 0 00-.004 10.606 7.502 7.502 0 0010.61.004zm0 0"/><path d="M168.254 120.965l82.445 82.375a7.5 7.5 0 0010.602 0l33.441-33.414a7.494 7.494 0 00.004-10.606 7.497 7.497 0 00-10.605-.004L256 187.434l-77.145-77.082c-18.992-18.973-49.894-18.973-68.886 0-9.203 9.195-14.274 21.421-14.274 34.421 0 13.004 5.07 25.23 14.274 34.422l77.136 77.07-77.136 77.07c-9.203 9.192-14.274 21.419-14.274 34.423 0 13.004 5.07 25.226 14.274 34.422 9.496 9.484 21.968 14.23 34.441 14.23s24.945-4.746 34.442-14.23l24.328-24.309a7.497 7.497 0 00.007-10.605 7.502 7.502 0 00-10.609-.004l-24.324 24.304c-13.149 13.137-34.54 13.137-47.684 0-6.367-6.359-9.875-14.812-9.875-23.808s3.508-17.45 9.875-23.813l82.446-82.375a7.485 7.485 0 002.199-5.304c0-1.989-.79-3.899-2.2-5.305l-82.445-82.375c-6.367-6.36-9.875-14.816-9.875-23.813 0-8.996 3.508-17.449 9.875-23.808 13.145-13.133 34.535-13.137 47.684 0zm0 0"/></svg>