<svg id="Layer_1" version="1.1" viewBox="0 0 512 512" xml:space="preserve" xmlns="http://www.w3.org/2000/svg"><style>.st1{fill:#d3d5e7}.st11{stroke-linecap:round;stroke-miterlimit:10}.st2{fill:#fff;stroke-width:6}.st2,.st5,.st9{stroke:#1e247e;stroke-linecap:round;stroke-miterlimit:10}.st11{fill:none}.st5,.st9{fill:none;stroke-width:2.5}.st9{stroke-width:6}.st11{stroke:#fff;stroke-width:7}.st27{fill:#1e247e}</style><g id="Online_shopping"><circle cx="256.2" cy="255.8" id="Background_15_" r="215.6" fill="#eeedf2"/><g id="Cart"><g id="Shadow_39_"><path class="st1" d="M151.3 272.5h228.3L357.8 383 177 363.6c-4.5-.5-8.2-3.7-9.3-8.1L148.6 276c-.4-1.8.9-3.5 2.7-3.5z" id="Basket_shadow_1_"/><path d="M438.7 207.2l-38.5 7.5c-5.8 1.1-10.3 5.6-11.5 11.4l-39.5 202c-.7 3.8-3 7-6.3 9h0c-2.1 1.3-4.5 1.9-7 1.9H168" id="Frame_shadow" fill="none" stroke="#d3d5e7" stroke-width="6" stroke-linecap="round" stroke-miterlimit="10"/><circle class="st1" cx="203.8" cy="457" id="Left_wheel" r="14.4"/><circle class="st1" cx="309.6" cy="457" id="Right_wheel" r="14.4"/></g><path class="st9" d="M421.5 206.2l-38.5 7.5c-5.8 1.1-10.3 5.6-11.5 11.4l-39.5 202c-.7 3.8-3 7-6.3 9-2.1 1.3-4.5 1.9-7 1.9H150.8" id="Frame"/><g id="Wheels"><g id="Right_36_"><circle class="st2" cx="292.3" cy="456" r="14.4"/><path class="st27" d="M292.3 459c3.9 0 3.9-6 0-6-3.8 0-3.8 6 0 6z" id="Inner_part_1_"/></g><g id="Left_37_"><circle class="st2" cx="186.5" cy="456" id="Outer_part" r="14.4"/><path class="st27" d="M186.5 459c3.9 0 3.9-6 0-6-3.8 0-3.8 6 0 6z" id="Inner_part"/></g></g><g id="Basket_1_"><path class="st2" d="M134 271.6h228.3l-21.8 110.5-180.8-19.4c-4.5-.5-8.2-3.7-9.3-8.1l-19-79.6c-.5-1.7.9-3.4 2.6-3.4z"/><path class="st9" d="M202.4 271.6l8.2 95.5m81.7-92.5l-13 100.9"/><path class="st5" d="M163.5 311.9l17.3 13.2m-17.3-4.9l8.7 6.6M176 313l4.8 3.7M334.6 343l-1.8 8.9m9.2-46.4l-5.6 28.3"/></g></g><g id="Arrows_3_"><path d="M171.8 152.8h-10.9c-.9 0-1.7-.7-1.7-1.7v-18c0-.9-.7-1.7-1.7-1.7h-18c-.9 0-1.7.7-1.7 1.7v18c0 .9-.7 1.7-1.7 1.7h-10.9c-1.3 0-2.1 1.5-1.4 2.6l16.6 25.7c3.8 5.9 12.5 5.9 16.3 0l16.5-25.7c.7-1.1-.1-2.6-1.4-2.6z" id="Left_36_" fill="#f0c330"/><path d="M273.6 215.1h-11.9c-1 0-1.8-.8-1.8-1.8v-19.7c0-1-.8-1.8-1.8-1.8h-19.7c-1 0-1.8.8-1.8 1.8v19.7c0 1-.8 1.8-1.8 1.8h-11.9c-1.4 0-2.3 1.6-1.5 2.8l18.1 28.1c4.2 6.5 13.6 6.5 17.8 0l18.1-28.1c.6-1.2-.3-2.8-1.8-2.8z" id="Bottom_38_" fill="#da867d" stroke="#1e247e" stroke-width="5.5" stroke-linecap="round" stroke-miterlimit="10"/><path d="M267.7 84.4h-11.9c-1 0-1.8-.8-1.8-1.8V62.8c0-1-.8-1.8-1.8-1.8h-19.7c-1 0-1.8.8-1.8 1.8v19.7c0 1-.8 1.8-1.8 1.8H217c-1.4 0-2.3 1.6-1.5 2.8l18.1 28.1c4.2 6.5 13.6 6.5 17.8 0l18.1-28.1c.6-1.1-.3-2.7-1.8-2.7z" id="Top_40_" fill="#d3d5e7" stroke="#1e247e" stroke-width="5.5" stroke-linecap="round" stroke-miterlimit="10"/><path d="M373.3 158.2h-10.9c-.9 0-1.7-.7-1.7-1.7v-18c0-.9-.7-1.7-1.7-1.7h-18c-.9 0-1.7.7-1.7 1.7v18c0 .9-.7 1.7-1.7 1.7h-10.9c-1.3 0-2.1 1.5-1.4 2.6l16.6 25.7c3.8 5.9 12.5 5.9 16.3 0l16.5-25.7c.7-1.2-.1-2.6-1.4-2.6z" id="Right_35_" fill="#69aef8"/></g><g id="Bottom_line_11_"><path class="st2" id="Right_34_" d="M407.7 472h63.7"/><path class="st2" id="Middle_38_" d="M74.4 472h317.8"/><path class="st2" id="Left_35_" d="M40.1 472h20.3"/></g><g id="Sparkles_11_"><path class="st11" id="Bottom_37_" d="M291.4 176.9l-8.3 2.4"/><path class="st11" id="Middle_37_" d="M282.5 164.8l-6.8 7.1"/><path class="st11" id="Top_39_" d="M267.1 165.9l1.5-9.2"/></g></g></svg>