<svg xmlns="http://www.w3.org/2000/svg" xmlns:xlink="http://www.w3.org/1999/xlink"><symbol id="card" viewBox="0 0 128 128">
  <g>
    <linearGradient id="SVGID_1_" gradientUnits="userSpaceOnUse" x1="53.999" x2="53.999" y1="26.3606" y2="97.5724">
      <stop offset="0" style="stop-color:#FFA726"/>
      <stop offset="1" style="stop-color:#FB8C00"/>
    </linearGradient>
    <path d="M8,27.98c-2.21,0-4,1.79-4,4v4c0,1.88,1.31,3.45,3.06,3.88c0.3,0.07,0.62,0.12,0.94,0.12 h4.01c0,0.28,9.49,48.85,9.49,48.85c0.36,1.84,1.85,3.16,3.58,3.16h62.98l10.2-52.01h4.47v-0.12l1.26-3.88v-8H8z" style="fill:url(#SVGID_1_);"/>
    <path d="M4,35.98c0,1.88,1.31,3.45,3.06,3.88h95.68l1.26-3.88H4z" style="fill:#F57C00;"/>
    <path d="M20.54,48.42l7.11,32.01c0.2,0.92,1.01,1.57,1.95,1.57H34c1.1,0,2-0.9,2-2V47.99c0-1.1-0.9-2-2-2 H22.49C21.21,45.99,20.26,47.17,20.54,48.42z" style="fill:#F57C00;"/>
    <path d="M83.46,48.42l-7.11,32.01c-0.2,0.92-1.01,1.57-1.95,1.57H70c-1.1,0-2-0.9-2-2V47.99c0-1.1,0.9-2,2-2 h11.51C82.78,45.99,83.74,47.17,83.46,48.42z" style="fill:#F57C00;"/>
    <path d="M46.23,45.99h11.53c1.19,0,2.12,1.04,1.99,2.22L56.2,80.21c-0.11,1.01-0.97,1.78-1.99,1.78h-4.42 c-1.02,0-1.88-0.77-1.99-1.78l-3.56-32.01C44.11,47.02,45.04,45.99,46.23,45.99z" style="fill:#F57C00;"/>
    <g style="opacity:0.2;">
      <path d="M101,30.98v4.53l-0.48,1.48h-2.25c-1.43,0-2.67,1.02-2.94,2.42l-9.73,49.59H25.08 c-0.24,0-0.55-0.28-0.64-0.74c-2.54-12.99-9.15-46.84-9.47-48.68c-0.2-1.47-1.45-2.59-2.97-2.59H8c-0.02,0-0.09,0-0.23-0.04 C7.4,36.86,7,36.52,7,35.98v-4c0-0.55,0.45-1,1-1H101 M104,27.98H8c-2.21,0-4,1.79-4,4v4c0,1.88,1.31,3.45,3.06,3.88 c0.3,0.07,0.62,0.12,0.94,0.12h4.01c0,0.28,9.49,48.85,9.49,48.85c0.36,1.84,1.85,3.16,3.58,3.16h62.98l10.21-52.01h4.47v-0.12 l1.26-3.88V27.98L104,27.98z" style="fill:#424242;"/>
    </g>
    <g style="opacity:0.2;">
      <path d="M34,47.99L34,47.99v32.01l-4.4,0l-7.11-32.01H34 M34,45.99H22.49c-1.28,0-2.23,1.19-1.95,2.43 l7.11,32.01c0.2,0.92,1.01,1.57,1.95,1.57H34c1.1,0,2-0.9,2-2V47.99C36,46.88,35.1,45.99,34,45.99L34,45.99z" style="fill:#424242;"/>
    </g>
    <g style="opacity:0.2;">
      <path d="M81.51,47.99L81.51,47.99l-7.11,32.01l-4.4,0V47.99H81.51 M81.51,45.99H70c-1.1,0-2,0.9-2,2v32.01 c0,1.1,0.9,2,2,2h4.4c0.94,0,1.75-0.65,1.95-1.57l7.11-32.01C83.74,47.17,82.78,45.99,81.51,45.99L81.51,45.99z" style="fill:#424242;"/>
    </g>
    <g style="opacity:0.2;">
      <path d="M57.76,47.99L57.76,47.99l-3.56,32.01l-4.42,0l-3.56-32.01H57.76 M57.76,45.99H46.23 c-1.19,0-2.12,1.04-1.99,2.22l3.56,32.01c0.11,1.01,0.97,1.78,1.99,1.78h4.42c1.02,0,1.88-0.77,1.99-1.78l3.56-32.01 C59.88,47.02,58.96,45.99,57.76,45.99L57.76,45.99z" style="fill:#424242;"/>
    </g>
  </g>
  <g>
    <g>
      <linearGradient id="SVGID_2_" gradientUnits="userSpaceOnUse" x1="59.958" x2="59.958" y1="-11.4084" y2="129.0476">
        <stop offset="0" style="stop-color:#90A4AE"/>
        <stop offset="1" style="stop-color:#607D8B"/>
      </linearGradient>
      <path d="M108.53,7.59c-2.36,0.79-4.19,2.68-4.9,5.06l-23.46,78.2c-0.29,0.98-0.2,2.03,0.25,2.94 l3.66,7.32c0.67,1.33-0.3,2.9-1.79,2.9H12c-2.34,0-4.21,2.01-3.98,4.39c0.2,2.08,2.06,3.61,4.15,3.61h79.68 c0.97,0,1.95-0.29,2.7-0.91c1.48-1.24,1.84-3.26,1.03-4.88l-5.65-11.29c-1.06-2.11-1.27-4.55-0.59-6.81l21.59-71.99 c0.15-0.52,0.51-0.93,0.98-1.18l-3.32-7.37L108.53,7.59z" style="fill:url(#SVGID_2_);"/>
      <path d="M123.45,5.95c-0.95-1.66-3-2.34-4.81-1.73l-10.04,3.35l3.32,7.37c0.1-0.05,0.19-0.11,0.3-0.14 l9.04-3.02C123.62,10.99,124.76,8.23,123.45,5.95z" style="fill:#F57C00;"/>
    </g>
    <g style="opacity:0.2;">
      <path d="M119.97,6c0.74,0,1.41,0.36,1.74,0.94c0.43,0.75,0.28,1.41,0.15,1.75c-0.22,0.56-0.67,1-1.24,1.19 l-9.04,3.02c-0.26,0.09-0.45,0.19-0.61,0.28c-0.96,0.51-1.65,1.35-1.96,2.37L87.43,87.53c-0.83,2.76-0.57,5.7,0.71,8.28 l5.65,11.29c0.42,0.83,0.2,1.84-0.53,2.45c-0.34,0.29-0.85,0.45-1.41,0.45H12.17c-1.12,0-2.07-0.79-2.16-1.8 c-0.06-0.58,0.13-1.13,0.51-1.55C10.9,106.23,11.43,106,12,106h70.29c1.4,0,2.67-0.71,3.4-1.9c0.73-1.19,0.8-2.64,0.18-3.89 l-3.66-7.32c-0.23-0.46-0.27-0.98-0.13-1.47l23.46-78.2c0.53-1.76,1.88-3.15,3.62-3.73l0.06-0.02l10.04-3.35 C119.5,6.04,119.73,6,119.97,6 M119.97,4c-0.45,0-0.9,0.07-1.34,0.22l-10.04,3.35l-0.06,0.02c-2.36,0.79-4.19,2.68-4.9,5.06 l-23.46,78.2c-0.29,0.98-0.2,2.03,0.25,2.94l3.66,7.32c0.67,1.33-0.3,2.9-1.79,2.9H12c-2.34,0-4.21,2.01-3.98,4.39 c0.2,2.08,2.06,3.61,4.15,3.61h79.68c0.97,0,1.95-0.29,2.7-0.91c1.48-1.24,1.84-3.26,1.03-4.88l-5.65-11.29 c-1.06-2.11-1.27-4.55-0.59-6.81l21.59-71.99c0.15-0.52,0.51-0.93,0.98-1.18c0.1-0.05,0.19-0.11,0.3-0.14l9.04-3.02 c2.35-0.79,3.49-3.55,2.19-5.83C122.73,4.69,121.38,4,119.97,4L119.97,4z" style="fill:#424242;"/>
    </g>
  </g>
  <g>
    <circle cx="28" cy="116" r="8" style="fill:#37474F;"/>
    <circle cx="80" cy="116" r="8" style="fill:#37474F;"/>
    <path d="M30,120h-4c-1.1,0-2-0.9-2-2v-10h8v10C32,119.1,31.1,120,30,120z" style="fill:#B0BEC5;"/>
    <circle cx="28" cy="114" r="2" style="fill:#FAFAFA;stroke:#757575;stroke-width:1.0001;stroke-miterlimit:10;"/>
    <path d="M82,120h-4c-1.1,0-2-0.9-2-2v-10h8v10C84,119.1,83.1,120,82,120z" style="fill:#B0BEC5;"/>
    <circle cx="80" cy="114" r="2" style="fill:#FAFAFA;stroke:#757575;stroke-width:1.0001;stroke-miterlimit:10;"/>
  </g>
</symbol><symbol id="close-black" viewBox="0 0 76 76">
<g id="_x37_7_Essential_Icons_8_">
	<path id="Cancel" d="M38,0C17,0,0,17,0,38s17,38,38,38s38-17,38-38S59,0,38,0z M38,72C19.2,72,4,56.8,4,38S19.2,4,38,4
		s34,15.2,34,34S56.8,72,38,72z M40.8,38l12.6-12.6c0.8-0.8,0.8-2,0-2.8s-2-0.8-2.8,0L38,35.2L25.4,22.6c-0.8-0.8-2-0.8-2.8,0
		s-0.8,2,0,2.8L35.2,38L22.6,50.6c-0.8,0.8-0.8,2,0,2.8s2,0.8,2.8,0L38,40.8l12.6,12.6c0.8,0.8,2,0.8,2.8,0s0.8-2,0-2.8L40.8,38z"/>
</g>
<g>
</g>
<g>
</g>
<g>
</g>
<g>
</g>
<g>
</g>
<g>
</g>
<g>
</g>
<g>
</g>
<g>
</g>
<g>
</g>
<g>
</g>
<g>
</g>
<g>
</g>
<g>
</g>
<g>
</g>
</symbol><symbol id="close-red" viewBox="0 -1 512 512"><path d="m504.5 255.78125c0-137.121094-111.257812-248.28125-248.5-248.28125s-248.5 111.160156-248.5 248.28125 111.257812 248.28125 248.5 248.28125 248.5-111.160156 248.5-248.28125zm0 0" fill="#e5554e"/><path d="m256 7.5c-6.535156 0-13.007812.253906-19.414062.75 128.167968 9.894531 229.085937 116.9375 229.085937 247.53125 0 130.589844-100.917969 237.632812-229.085937 247.527344 6.40625.496094 12.878906.75 19.414062.75 137.242188 0 248.5-111.15625 248.5-248.277344s-111.257812-248.28125-248.5-248.28125zm0 0" fill="#c62430"/><path d="m314.285156 256.265625 82.421875-82.347656c16.105469-16.089844 16.105469-42.195313 0-58.285157-16.085937-16.070312-42.148437-16.070312-58.234375 0l-82.472656 82.402344-82.472656-82.402344c-16.085938-16.070312-42.148438-16.070312-58.230469 0-16.105469 16.089844-16.105469 42.195313 0 58.285157l82.421875 82.347656-82.421875 82.351563c-16.105469 16.089843-16.105469 42.191406 0 58.28125 16.082031 16.070312 42.144531 16.070312 58.230469 0l82.472656-82.402344 82.472656 82.402344c16.085938 16.070312 42.148438 16.070312 58.230469 0 16.105469-16.089844 16.105469-42.195313 0-58.285157zm0 0" fill="#fff"/><path d="m314.285156 256.265625 82.445313-82.375c16.097656-16.078125 16.097656-42.152344 0-58.230469-13.144531-13.136718-32.964844-15.535156-48.554688-7.210937 3.496094 1.863281 6.78125 4.265625 9.726563 7.210937 16.097656 16.078125 16.097656 42.152344 0 58.230469l-72.148438 72.089844c-5.6875 5.679687-5.6875 14.890625 0 20.574219l72.148438 72.085937c16.097656 16.082031 16.097656 42.152344 0 58.230469-2.945313 2.945312-6.230469 5.347656-9.726563 7.214844 15.589844 8.324218 35.410157 5.921874 48.554688-7.214844 16.097656-16.078125 16.097656-42.148438 0-58.230469zm0 0" fill="#e6e6e6"/><path d="m437.019531 74.914062c-48.355469-48.308593-112.640625-74.914062-181.019531-74.914062s-132.664062 26.605469-181.019531 74.914062c-48.351563 48.3125-74.980469 112.542969-74.980469 180.867188 0 65.1875 24.550781 127.269531 69.128906 174.820312 44.363282 47.324219 104.332032 75.851563 168.859375 80.335938 4.128907.273438 7.714844-2.832031 8.003907-6.960938.285156-4.132812-2.832032-7.714843-6.964844-8.003906-60.738282-4.21875-117.191406-31.078125-158.957032-75.628906-41.960937-44.761719-65.070312-103.203125-65.070312-164.5625 0-64.3125 25.066406-124.777344 70.585938-170.253906 45.519531-45.480469 106.039062-70.527344 170.414062-70.527344s124.894531 25.046875 170.414062 70.523438c45.519532 45.480468 70.585938 105.945312 70.585938 170.257812 0 61.359375-23.109375 119.804688-65.070312 164.5625-41.765626 44.550781-98.21875 71.410156-158.957032 75.628906-4.132812.289063-7.25 3.871094-6.964844 8.003906.277344 3.957032 3.570313 6.980469 7.476563 6.980469.175781 0 .351563-.007812.527344-.019531 64.527343-4.484375 124.496093-33.011719 168.859375-80.335938 44.578125-47.550781 69.128906-109.636718 69.128906-174.820312 0-68.324219-26.628906-132.554688-74.980469-180.867188zm0 0"/><path d="m227.851562 353.222656 28.148438-28.125 77.144531 77.082032c9.496094 9.484374 21.972657 14.230468 34.445313 14.230468s24.945312-4.746094 34.441406-14.230468c9.203125-9.195313 14.269531-21.417969 14.269531-34.421876 0-13.003906-5.066406-25.230468-14.269531-34.421874l-77.136719-77.070313 77.136719-77.070313c9.203125-9.191406 14.269531-21.417968 14.269531-34.421874 0-13.003907-5.066406-25.226563-14.269531-34.421876-18.992188-18.972656-49.894531-18.972656-68.886719 0l-24.40625 24.386719c-2.929687 2.925781-2.933593 7.675781-.003906 10.605469 2.925781 2.929688 7.675781 2.933594 10.605469.003906l24.40625-24.382812c13.144531-13.136719 34.535156-13.136719 47.683594 0 6.367187 6.359375 9.871093 14.8125 9.871093 23.808594 0 8.996093-3.503906 17.449218-9.871093 23.8125l-82.449219 82.375c-1.40625 1.40625-2.199219 3.3125-2.199219 5.304687s.792969 3.898437 2.199219 5.304687l82.449219 82.375c6.367187 6.359376 9.871093 14.816407 9.871093 23.8125 0 8.996094-3.503906 17.449219-9.871093 23.808594-13.148438 13.136719-34.539063 13.136719-47.683594 0l-82.445313-82.375c-2.929687-2.925781-7.675781-2.925781-10.605469 0l-33.449218 33.421875c-2.929688 2.929688-2.933594 7.675781-.003906 10.605469 2.929687 2.929688 7.679687 2.933594 10.609374.003906zm0 0"/><path d="m168.253906 120.964844 82.445313 82.375c2.929687 2.925781 7.671875 2.925781 10.601562 0l33.441407-33.414063c2.933593-2.929687 2.933593-7.675781.003906-10.605469-2.925782-2.929687-7.675782-2.933593-10.605469-.003906l-28.140625 28.117188-77.144531-77.082032c-18.992188-18.972656-49.894531-18.972656-68.886719 0-9.203125 9.195313-14.273438 21.421876-14.273438 34.421876 0 13.003906 5.070313 25.230468 14.273438 34.421874l77.136719 77.070313-77.136719 77.070313c-9.203125 9.191406-14.273438 21.417968-14.273438 34.421874 0 13.003907 5.070313 25.226563 14.273438 34.421876 9.496094 9.484374 21.96875 14.230468 34.441406 14.230468s24.945313-4.746094 34.441406-14.230468l24.328126-24.308594c2.933593-2.925782 2.933593-7.675782.007812-10.605469-2.929688-2.929687-7.679688-2.933594-10.609375-.003906l-24.324219 24.304687c-13.148437 13.136719-34.539062 13.136719-47.683594 0-6.367187-6.359375-9.875-14.8125-9.875-23.808594 0-8.996093 3.507813-17.449218 9.875-23.8125l82.445313-82.375c1.410156-1.40625 2.199219-3.3125 2.199219-5.304687 0-1.988281-.789063-3.898437-2.199219-5.304687l-82.445313-82.375c-6.367187-6.359376-9.875-14.816407-9.875-23.8125 0-8.996094 3.507813-17.449219 9.875-23.808594 13.144532-13.132813 34.535157-13.136719 47.683594 0zm0 0"/></symbol><symbol id="icon-card" viewBox="0 0 512 512"><style type="text/css">
	.st0{fill:#EEEDF2;}
	.st1{fill:#D3D5E7;}
	.st2{fill:#FFFFFF;stroke:#1E247E;stroke-width:6;stroke-linecap:round;stroke-miterlimit:10;}
	.st3{fill:#DA867D;stroke:#1E247E;stroke-width:6;stroke-linecap:round;stroke-miterlimit:10;}
	.st4{fill:none;stroke:#1E247E;stroke-width:3;stroke-linecap:round;stroke-miterlimit:10;}
	.st5{fill:none;stroke:#1E247E;stroke-width:2.5;stroke-linecap:round;stroke-miterlimit:10;}
	.st6{fill:#F0C330;stroke:#1E247E;stroke-width:6;stroke-linecap:round;stroke-miterlimit:10;}
	.st7{fill:none;stroke:#1E247E;stroke-width:2;stroke-linecap:round;stroke-miterlimit:10;}
	.st8{fill:#DBE7FE;stroke:#1E247E;stroke-width:6;stroke-linecap:round;stroke-miterlimit:10;}
	.st9{fill:none;stroke:#1E247E;stroke-width:6;stroke-linecap:round;stroke-miterlimit:10;}
	.st10{fill:#1E247E;stroke:#1E247E;stroke-width:4;stroke-linecap:round;stroke-miterlimit:10;}
	.st11{fill:none;stroke:#FFFFFF;stroke-width:7;stroke-linecap:round;stroke-miterlimit:10;}
	.st12{fill:#FFFFFF;stroke:#1E247E;stroke-width:6;stroke-linecap:round;stroke-linejoin:round;stroke-miterlimit:10;}
	.st13{fill:#69ADF7;stroke:#1E247E;stroke-width:2.5;stroke-linecap:round;stroke-miterlimit:10;}
	.st14{fill:none;stroke:#1E247E;stroke-width:3;stroke-linecap:round;stroke-linejoin:round;stroke-miterlimit:10;}
	.st15{fill:#FFFFFF;}
	.st16{fill:#F0C330;stroke:#1E247E;stroke-width:6;stroke-miterlimit:10;}
	.st17{fill:#DA867D;stroke:#1E247E;stroke-width:6;stroke-miterlimit:10;}
	.st18{fill:none;stroke:#1E247E;stroke-width:5;stroke-linecap:round;stroke-miterlimit:10;}
	.st19{fill:none;stroke:#D3D5E7;stroke-width:6;stroke-linecap:round;stroke-miterlimit:10;}
	.st20{fill:none;stroke:#D2D4E6;stroke-width:6;stroke-linecap:round;stroke-miterlimit:10;}
	.st21{fill:#EFC230;stroke:#D3D5E7;stroke-width:6;stroke-linecap:round;stroke-miterlimit:10;}
	.st22{fill:#FFFFFF;stroke:#1E247E;stroke-width:6;stroke-miterlimit:10;}
	.st23{fill:none;stroke:#1E247E;stroke-width:4;stroke-linecap:round;stroke-miterlimit:10;}
	.st24{fill:#EFC230;stroke:#1E247E;stroke-width:6;stroke-linecap:round;stroke-miterlimit:10;}
	.st25{fill:#69AEF8;stroke:#1E247E;stroke-width:6;stroke-miterlimit:10;}
	.st26{fill:#FFFFFF;stroke:#1E247E;stroke-width:5;stroke-linecap:round;stroke-miterlimit:10;}
	.st27{fill:#1E247E;}
	.st28{fill:#F0C330;}
	.st29{fill:#DA867D;stroke:#1E247E;stroke-width:5.5;stroke-linecap:round;stroke-miterlimit:10;}
	.st30{fill:#D3D5E7;stroke:#1E247E;stroke-width:5.5;stroke-linecap:round;stroke-miterlimit:10;}
	.st31{fill:#69AEF8;}
	.st32{fill:#D3D5E7;stroke:#1E247E;stroke-width:6;stroke-linejoin:round;stroke-miterlimit:10;}
	.st33{fill:#FCF5F2;stroke:#1E247E;stroke-width:6;stroke-linejoin:round;stroke-miterlimit:10;}
	.st34{fill:#DA867D;stroke:#1E247E;stroke-width:6;stroke-linejoin:round;stroke-miterlimit:10;}
	.st35{fill:#DA867D;}
	.st36{fill:#69AEF8;stroke:#1E247E;stroke-width:6;stroke-linecap:round;stroke-linejoin:round;stroke-miterlimit:10;}
	.st37{fill:#1E247E;stroke:#1E247E;stroke-width:6;stroke-linecap:round;stroke-linejoin:round;stroke-miterlimit:10;}
	.st38{fill:#DBE7FE;stroke:#1E247E;stroke-width:6;stroke-linejoin:round;stroke-miterlimit:10;}
	.st39{fill:#F0C330;stroke:#1E247E;stroke-width:6;stroke-linejoin:round;stroke-miterlimit:10;}
	.st40{fill:none;stroke:#FFFFFF;stroke-width:6;stroke-linecap:round;stroke-linejoin:round;stroke-miterlimit:10;}
	.st41{fill:none;stroke:#1E247E;stroke-width:6;stroke-linecap:round;stroke-linejoin:round;stroke-miterlimit:10;}
</style><g><g id="Online_shopping"><circle class="st0" cx="256.2" cy="255.8" id="Background_15_" r="215.6"/><g id="Cart"><g id="Shadow_39_"><path class="st1" d="M151.3,272.5h228.3L357.8,383l-180.8-19.4c-4.5-0.5-8.2-3.7-9.3-8.1L148.6,276       C148.2,274.2,149.5,272.5,151.3,272.5z" id="Basket_shadow_1_"/><path class="st19" d="M438.7,207.2l-38.5,7.5c-5.8,1.1-10.3,5.6-11.5,11.4l-39.5,202c-0.7,3.8-3,7-6.3,9l0,0       c-2.1,1.3-4.5,1.9-7,1.9H168" id="Frame_shadow"/><circle class="st1" cx="203.8" cy="457" id="Left_wheel" r="14.4"/><circle class="st1" cx="309.6" cy="457" id="Right_wheel" r="14.4"/></g><path class="st9" d="M421.5,206.2l-38.5,7.5c-5.8,1.1-10.3,5.6-11.5,11.4l-39.5,202c-0.7,3.8-3,7-6.3,9l0,0      c-2.1,1.3-4.5,1.9-7,1.9H150.8" id="Frame"/><g id="Wheels"><g id="Right_36_"><circle class="st2" cx="292.3" cy="456" r="14.4"/><g id="Inner_part_1_"><g><path class="st27" d="M292.3,459c3.9,0,3.9-6,0-6C288.5,453,288.5,459,292.3,459L292.3,459z"/></g></g></g><g id="Left_37_"><circle class="st2" cx="186.5" cy="456" id="Outer_part" r="14.4"/><g id="Inner_part"><g><path class="st27" d="M186.5,459c3.9,0,3.9-6,0-6C182.7,453,182.7,459,186.5,459L186.5,459z"/></g></g></g></g><g id="Basket_1_"><path class="st2" d="M134,271.6h228.3l-21.8,110.5l-180.8-19.4c-4.5-0.5-8.2-3.7-9.3-8.1L131.4,275       C130.9,273.3,132.3,271.6,134,271.6z"/><line class="st9" x1="202.4" x2="210.6" y1="271.6" y2="367.1"/><line class="st9" x1="292.3" x2="279.3" y1="274.6" y2="375.5"/><g><line class="st5" x1="163.5" x2="180.8" y1="311.9" y2="325.1"/><line class="st5" x1="163.5" x2="172.2" y1="320.2" y2="326.8"/><line class="st5" x1="176" x2="180.8" y1="313" y2="316.7"/></g><g><line class="st5" x1="334.6" x2="332.8" y1="343" y2="351.9"/><line class="st5" x1="342" x2="336.4" y1="305.5" y2="333.8"/></g></g></g><g id="Arrows_3_"><path class="st28" d="M171.8,152.8h-10.9c-0.9,0-1.7-0.7-1.7-1.7v-18c0-0.9-0.7-1.7-1.7-1.7h-18      c-0.9,0-1.7,0.7-1.7,1.7v18c0,0.9-0.7,1.7-1.7,1.7h-10.9c-1.3,0-2.1,1.5-1.4,2.6l16.6,25.7c3.8,5.9,12.5,5.9,16.3,0l16.5-25.7      C173.9,154.3,173.1,152.8,171.8,152.8z" id="Left_36_"/><path class="st29" d="M273.6,215.1h-11.9c-1,0-1.8-0.8-1.8-1.8v-19.7c0-1-0.8-1.8-1.8-1.8h-19.7      c-1,0-1.8,0.8-1.8,1.8v19.7c0,1-0.8,1.8-1.8,1.8h-11.9c-1.4,0-2.3,1.6-1.5,2.8l18.1,28.1c4.2,6.5,13.6,6.5,17.8,0l18.1-28.1      C276,216.7,275.1,215.1,273.6,215.1z" id="Bottom_38_"/><path class="st30" d="M267.7,84.4h-11.9c-1,0-1.8-0.8-1.8-1.8V62.8c0-1-0.8-1.8-1.8-1.8h-19.7      c-1,0-1.8,0.8-1.8,1.8v19.7c0,1-0.8,1.8-1.8,1.8h-11.9c-1.4,0-2.3,1.6-1.5,2.8l18.1,28.1c4.2,6.5,13.6,6.5,17.8,0l18.1-28.1      C270.1,86,269.2,84.4,267.7,84.4z" id="Top_40_"/><path class="st31" d="M373.3,158.2h-10.9c-0.9,0-1.7-0.7-1.7-1.7v-18c0-0.9-0.7-1.7-1.7-1.7h-18      c-0.9,0-1.7,0.7-1.7,1.7v18c0,0.9-0.7,1.7-1.7,1.7h-10.9c-1.3,0-2.1,1.5-1.4,2.6l16.6,25.7c3.8,5.9,12.5,5.9,16.3,0l16.5-25.7      C375.4,159.6,374.6,158.2,373.3,158.2z" id="Right_35_"/></g><g id="Bottom_line_11_"><line class="st2" id="Right_34_" x1="407.7" x2="471.4" y1="472" y2="472"/><line class="st2" id="Middle_38_" x1="74.4" x2="392.2" y1="472" y2="472"/><line class="st2" id="Left_35_" x1="40.1" x2="60.4" y1="472" y2="472"/></g><g id="Sparkles_11_"><line class="st11" id="Bottom_37_" x1="291.4" x2="283.1" y1="176.9" y2="179.3"/><line class="st11" id="Middle_37_" x1="282.5" x2="275.7" y1="164.8" y2="171.9"/><line class="st11" id="Top_39_" x1="267.1" x2="268.6" y1="165.9" y2="156.7"/></g></g></g></symbol></svg>